<?xml version="1.0" encoding="UTF-8" standalone="no"?>
<svg
   xmlns:dc="http://purl.org/dc/elements/1.1/"
   xmlns:cc="http://creativecommons.org/ns#"
   xmlns:rdf="http://www.w3.org/1999/02/22-rdf-syntax-ns#"
   xmlns:svg="http://www.w3.org/2000/svg"
   xmlns="http://www.w3.org/2000/svg"
   xmlns:sodipodi="http://sodipodi.sourceforge.net/DTD/sodipodi-0.dtd"
   xmlns:inkscape="http://www.inkscape.org/namespaces/inkscape"
   width="33.815285"
   height="33.914162"
   viewBox="0 0 33.815285 33.914162"
   version="1.1"
   id="svg4"
   sodipodi:docname="logo.svg"
   inkscape:version="0.92.3 (2405546, 2018-03-11)">
  <metadata
     id="metadata10">
    <rdf:RDF>
      <cc:Work
         rdf:about="">
        <dc:format>image/svg+xml</dc:format>
        <dc:type
           rdf:resource="http://purl.org/dc/dcmitype/StillImage" />
      </cc:Work>
    </rdf:RDF>
  </metadata>
  <defs
     id="defs8" />
  <sodipodi:namedview
     pagecolor="#ffffff"
     bordercolor="#666666"
     borderopacity="1"
     objecttolerance="10"
     gridtolerance="10"
     guidetolerance="10"
     inkscape:pageopacity="0"
     inkscape:pageshadow="2"
     inkscape:window-width="1366"
     inkscape:window-height="705"
     id="namedview6"
     showgrid="false"
     inkscape:zoom="10.11377"
     inkscape:cx="-3.0499429"
     inkscape:cy="15.297163"
     inkscape:window-x="0"
     inkscape:window-y="343"
     inkscape:window-maximized="1"
     inkscape:current-layer="svg4" />
  <g
     inkscape:export-ydpi="131.90401"
     inkscape:export-xdpi="131.90401"
     inkscape:export-filename="/home/mir/MIR-Extension/src/assets/images/home-bg.png"
     transform="matrix(0.01515209,0,0,0.01515209,79.026162,-18.869088)"
     id="g6233"
     style="fill:none;fill-opacity:1;stroke:#ffffff;stroke-width:33.68661118;stroke-miterlimit:4;stroke-dasharray:none;stroke-opacity:1;enable-background:new">
    <rect
       style="fill:none;fill-opacity:1;stroke:#ffffff;stroke-width:33.68661118;stroke-linecap:square;stroke-linejoin:miter;stroke-miterlimit:4;stroke-dasharray:none;stroke-opacity:1"
       class="cls-2"
       x="-4106.5518"
       y="1291.6824"
       width="13.765544"
       height="2145.51"
       rx="409.84583"
       ry="409.84583"
       id="rect6195" />
    <path
       style="fill:none;fill-opacity:1;stroke:#ffffff;stroke-width:33.68661118;stroke-linecap:square;stroke-linejoin:miter;stroke-miterlimit:4;stroke-dasharray:none;stroke-opacity:1"
       inkscape:connector-curvature="0"
       class="cls-2"
       d="m -3421.0687,2643.2929 v 0 a 6.7275211,6.7275211 0 0 1 -8.8494,4.6058 l -1344.8832,-551.6569 a 8.0212753,8.0212753 0 0 1 -4.0884,-9.8841 v 0 a 6.7275211,6.7275211 0 0 1 8.8494,-4.6058 l 1344.8831,551.6568 a 8.0212753,8.0212753 0 0 1 4.0885,9.8842 z"
       id="path6197" />
    <path
       style="fill:none;fill-opacity:1;stroke:#ffffff;stroke-width:33.68661118;stroke-linecap:square;stroke-linejoin:miter;stroke-miterlimit:4;stroke-dasharray:none;stroke-opacity:1"
       inkscape:connector-curvature="0"
       class="cls-2"
       d="m -4092.8898,2824.0563 v 0 a 6.8827718,6.8827718 0 0 1 -8.3316,5.6406 l -673.5799,-183.6613 a 7.8142746,7.8142746 0 0 1 -5.1751,-9.3148 v 0 a 6.8827718,6.8827718 0 0 1 8.3316,-5.641 l 673.4767,183.713 a 7.8142746,7.8142746 0 0 1 5.2783,9.2635 z"
       id="path6199" />
    <path
       style="fill:none;fill-opacity:1;stroke:#ffffff;stroke-width:33.68661118;stroke-linecap:square;stroke-linejoin:miter;stroke-miterlimit:4;stroke-dasharray:none;stroke-opacity:1"
       inkscape:connector-curvature="0"
       class="cls-2"
       d="m -4106.9655,2824.0563 v 0 a 6.8827718,6.8827718 0 0 0 8.3316,5.6925 l 674.0976,-183.8684 a 7.8142746,7.8142746 0 0 0 5.1752,-9.3151 v 0 a 6.8827718,6.8827718 0 0 0 -8.3317,-5.6925 l -674.3566,183.8684 a 7.8142746,7.8142746 0 0 0 -4.9161,9.3151 z"
       id="path6201" />
    <path
       style="fill:none;fill-opacity:1;stroke:#ffffff;stroke-width:33.68661118;stroke-linecap:square;stroke-linejoin:miter;stroke-miterlimit:4;stroke-dasharray:none;stroke-opacity:1"
       inkscape:connector-curvature="0"
       class="cls-2"
       d="m -4093.4071,1903.576 v 0 a 6.8827718,6.8827718 0 0 0 -8.3317,-5.6925 l -672.1829,183.351 a 7.8142746,7.8142746 0 0 0 -5.1748,9.3148 v 0 a 6.8827718,6.8827718 0 0 0 8.3317,5.6925 l 672.1825,-183.3506 a 7.8142746,7.8142746 0 0 0 5.1752,-9.3152 z"
       id="path6203" />
    <path
       style="fill:none;fill-opacity:1;stroke:#ffffff;stroke-width:33.68661118;stroke-linecap:square;stroke-linejoin:miter;stroke-miterlimit:4;stroke-dasharray:none;stroke-opacity:1"
       inkscape:connector-curvature="0"
       class="cls-2"
       d="m -4107.5349,1903.576 v 0 a 6.8827718,6.8827718 0 0 1 8.3317,-5.6925 l 674.098,183.8684 a 7.8142746,7.8142746 0 0 1 5.1747,9.3152 v 0 a 6.8827718,6.8827718 0 0 1 -8.3316,5.6925 l -674.2012,-183.8684 a 7.8142746,7.8142746 0 0 1 -5.0716,-9.3152 z"
       id="path6205" />
    <path
       style="fill:none;fill-opacity:1;stroke:#ffffff;stroke-width:33.68661118;stroke-linecap:square;stroke-linejoin:miter;stroke-miterlimit:4;stroke-dasharray:none;stroke-opacity:1"
       inkscape:connector-curvature="0"
       class="cls-2"
       d="m -3420.3443,2086.668 v 0 a 8.0212753,8.0212753 0 0 1 -4.0884,9.8845 l -1346.3321,549.0692 a 6.7275211,6.7275211 0 0 1 -8.7974,-4.6058 v 0 a 8.0212753,8.0212753 0 0 1 4.088,-9.8845 l 1346.177,-549.0692 a 6.7275211,6.7275211 0 0 1 8.9529,4.6058 z"
       id="path6207" />
    <path
       style="fill:none;fill-opacity:1;stroke:#ffffff;stroke-width:33.68661118;stroke-linecap:square;stroke-linejoin:miter;stroke-miterlimit:4;stroke-dasharray:none;stroke-opacity:1"
       inkscape:connector-curvature="0"
       class="cls-2"
       d="m -4094.1832,2822.8141 v 0 a 6.36527,6.36527 0 0 1 -9.7293,0 l -673.0625,-728.5386 a 8.3835263,8.3835263 0 0 1 0,-10.9195 v 0 a 6.36527,6.36527 0 0 1 9.7293,0 l 672.907,728.5389 a 8.3835263,8.3835263 0 0 1 0.1562,10.9192 z"
       id="path6209" />
    <path
       style="fill:none;fill-opacity:1;stroke:#ffffff;stroke-width:33.68661118;stroke-linecap:square;stroke-linejoin:miter;stroke-miterlimit:4;stroke-dasharray:none;stroke-opacity:1"
       inkscape:connector-curvature="0"
       class="cls-2"
       d="m -4104.7921,2823.0212 v 0 a 6.36527,6.36527 0 0 0 9.7289,0 l 673.1145,-728.5905 a 8.3835263,8.3835263 0 0 0 0,-10.9192 v 0 a 6.36527,6.36527 0 0 0 -9.729,0 l -672.9074,728.5905 a 8.3835263,8.3835263 0 0 0 -0.207,10.9192 z"
       id="path6211" />
    <path
       style="fill:none;fill-opacity:1;stroke:#ffffff;stroke-width:33.68661118;stroke-linecap:square;stroke-linejoin:miter;stroke-miterlimit:4;stroke-dasharray:none;stroke-opacity:1"
       inkscape:connector-curvature="0"
       class="cls-2"
       d="m -3422.0523,2094.9481 v 0 a 6.36527,6.36527 0 0 1 -9.7289,0 l -672.8558,-790.225 a 8.3835263,8.3835263 0 0 1 0,-10.9192 v 0 a 6.36527,6.36527 0 0 1 9.7293,0 l 672.7519,789.9662 a 8.3835263,8.3835263 0 0 1 0.1054,11.178 z"
       id="path6213" />
    <path
       style="fill:none;fill-opacity:1;stroke:#ffffff;stroke-width:33.68661118;stroke-linecap:square;stroke-linejoin:miter;stroke-miterlimit:4;stroke-dasharray:none;stroke-opacity:1"
       inkscape:connector-curvature="0"
       class="cls-2"
       d="m -3422.6212,2645.2076 v 0 a 6.5205208,6.5205208 0 0 1 -9.3671,-2.9498 l -673.4248,-1339.1387 a 8.2282759,8.2282759 0 0 1 2.6392,-10.3503 v 0 a 6.5205208,6.5205208 0 0 1 9.3668,2.9498 l 673.425,1339.0355 a 8.2282759,8.2282759 0 0 1 -2.6391,10.4535 z"
       id="path6215" />
    <path
       style="fill:none;fill-opacity:1;stroke:#ffffff;stroke-width:33.68661118;stroke-linecap:square;stroke-linejoin:miter;stroke-miterlimit:4;stroke-dasharray:none;stroke-opacity:1"
       inkscape:connector-curvature="0"
       class="cls-2"
       d="m -4095.5289,3434.708 v 0 a 6.5205208,6.5205208 0 0 1 -9.3668,-2.9498 l -673.4247,-1339.1906 a 8.2282759,8.2282759 0 0 1 2.6391,-10.3499 v 0 a 6.5205208,6.5205208 0 0 1 9.3668,2.9498 l 673.3731,1339.0355 a 8.2282759,8.2282759 0 0 1 -2.5875,10.505 z"
       id="path6217" />
    <path
       style="fill:none;fill-opacity:1;stroke:#ffffff;stroke-width:33.68661118;stroke-linecap:square;stroke-linejoin:miter;stroke-miterlimit:4;stroke-dasharray:none;stroke-opacity:1"
       inkscape:connector-curvature="0"
       class="cls-2"
       d="m -4776.975,2094.5858 v 0 a 6.36527,6.36527 0 0 0 9.7293,0 l 672.7519,-789.604 a 8.3835263,8.3835263 0 0 0 0,-10.9192 v 0 a 6.36527,6.36527 0 0 0 -9.729,0 l -672.7522,789.604 a 8.3835263,8.3835263 0 0 0 0,10.9192 z"
       id="path6219" />
    <path
       style="fill:none;fill-opacity:1;stroke:#ffffff;stroke-width:33.68661118;stroke-linecap:square;stroke-linejoin:miter;stroke-miterlimit:4;stroke-dasharray:none;stroke-opacity:1"
       inkscape:connector-curvature="0"
       class="cls-2"
       d="m -3421.2242,2632.9945 v 0 a 6.36527,6.36527 0 0 0 -9.729,0 l -673.6838,791.1565 a 8.3835263,8.3835263 0 0 0 0,10.9193 v 0 a 6.36527,6.36527 0 0 0 9.7293,0 l 673.8905,-791.1565 a 8.3835263,8.3835263 0 0 0 -0.207,-10.9193 z"
       id="path6221" />
    <path
       style="fill:none;fill-opacity:1;stroke:#ffffff;stroke-width:33.68661118;stroke-linecap:square;stroke-linejoin:miter;stroke-miterlimit:4;stroke-dasharray:none;stroke-opacity:1"
       inkscape:connector-curvature="0"
       class="cls-2"
       d="m -4777.803,2633.3052 v 0 a 6.36527,6.36527 0 0 1 9.7289,0 l 673.3732,790.8458 a 8.3835263,8.3835263 0 0 1 0,10.9193 v 0 a 6.36527,6.36527 0 0 1 -9.729,0 l -673.6318,-790.8459 a 8.3835263,8.3835263 0 0 1 0.2579,-10.9192 z"
       id="path6223" />
    <path
       style="fill:none;fill-opacity:1;stroke:#ffffff;stroke-width:33.68661118;stroke-linecap:square;stroke-linejoin:miter;stroke-miterlimit:4;stroke-dasharray:none;stroke-opacity:1"
       inkscape:connector-curvature="0"
       class="cls-2"
       d="m -4776.5093,2645.6733 v 0 a 6.5205208,6.5205208 0 0 0 9.3668,-2.9498 l 673.4251,-1339.1906 a 8.2282759,8.2282759 0 0 0 -2.6395,-10.3499 v 0 a 6.5205208,6.5205208 0 0 0 -9.3668,2.9498 l -673.4247,1339.0351 a 8.2282759,8.2282759 0 0 0 2.6391,10.5054 z"
       id="path6225" />
    <path
       style="fill:none;fill-opacity:1;stroke:#ffffff;stroke-width:33.68661118;stroke-linecap:square;stroke-linejoin:miter;stroke-miterlimit:4;stroke-dasharray:none;stroke-opacity:1"
       inkscape:connector-curvature="0"
       class="cls-2"
       d="m -4103.6019,3435.1222 v 0 a 6.5205208,6.5205208 0 0 0 9.3668,-2.9498 l 673.425,-1339.1906 a 8.2282759,8.2282759 0 0 0 -2.6395,-10.3503 v 0 a 6.5205208,6.5205208 0 0 0 -9.3667,2.9498 l -673.3732,1339.0355 a 8.2282759,8.2282759 0 0 0 2.5876,10.5054 z"
       id="path6227" />
    <path
       style="fill:none;fill-opacity:1;stroke:#ffffff;stroke-width:33.68661118;stroke-linecap:square;stroke-linejoin:miter;stroke-miterlimit:4;stroke-dasharray:none;stroke-opacity:1"
       inkscape:connector-curvature="0"
       class="cls-2"
       d="m -4094.649,1902.748 v 0 a 6.36527,6.36527 0 0 0 -9.729,0 l -673.1144,728.5905 a 8.3835263,8.3835263 0 0 0 0,10.9193 v 0 a 6.36527,6.36527 0 0 0 9.729,0 l 672.9073,-728.5906 a 8.3835263,8.3835263 0 0 0 0.2071,-10.9192 z"
       id="path6229" />
    <path
       style="fill:none;fill-opacity:1;stroke:#ffffff;stroke-width:33.68661118;stroke-linecap:square;stroke-linejoin:miter;stroke-miterlimit:4;stroke-dasharray:none;stroke-opacity:1"
       inkscape:connector-curvature="0"
       class="cls-2"
       d="m -4105.3095,1902.5409 v 0 a 6.36527,6.36527 0 0 1 9.729,0 l 673.1144,728.5905 a 8.3835263,8.3835263 0 0 1 0,10.9193 v 0 a 6.36527,6.36527 0 0 1 -9.729,0 l -672.9073,-728.5906 a 8.3835263,8.3835263 0 0 1 -0.2071,-10.9192 z"
       id="path6231" />
  </g>
</svg>
